<svg width="1024" height="1024" viewBox="0 0 1024 1024" fill="none" xmlns="http://www.w3.org/2000/svg">
<rect width="1024" height="1024" rx="512" fill="#EEE7DD"/>
<path d="M722.922 502.913H562.059V342.147H722.922V502.913ZM531.372 241.074C492.497 241.074 460.981 272.587 460.981 311.461V533.599C460.981 572.473 492.497 603.986 531.372 603.986H753.609C792.485 603.986 824 572.473 824 533.599V311.461C824 272.587 792.485 241.074 753.609 241.074H531.372Z" fill="#64A1BB" stroke="#477F97" stroke-width="16"/>
<path d="M462.705 502.913H289.571L376.138 353.021L462.705 502.913ZM434.639 252.209C408.635 207.183 343.641 207.183 317.638 252.209L172.999 502.653C146.99 547.688 179.494 603.985 231.5 603.985H520.777C572.783 603.985 605.286 547.687 579.278 502.653L434.639 252.209Z" fill="#D16C65" stroke="#B44C45" stroke-width="16"/>
<circle cx="496" cy="648" r="123" fill="#EEE7DD"/>
<path d="M590.507 648.479C590.507 702.719 547.347 744.839 496.377 744.839C445.408 744.839 402.248 702.719 402.248 648.479C402.248 594.239 445.408 552.12 496.377 552.12C547.347 552.12 590.507 594.239 590.507 648.479ZM496.377 845.911C604.276 845.911 691.585 757.428 691.585 648.479C691.585 539.53 604.276 451.047 496.377 451.047C388.478 451.047 301.17 539.53 301.17 648.479C301.17 757.428 388.478 845.911 496.377 845.911Z" fill="#EBB700" stroke="#C4910D" stroke-width="16"/>
</svg>