<svg width="1024" height="1024" viewBox="0 0 1024 1024" fill="none" xmlns="http://www.w3.org/2000/svg">
<mask id="mask0_1013_283" style="mask-type:alpha" maskUnits="userSpaceOnUse" x="2" y="39" width="1022" height="618">
<path d="M2 645.01L9.2654 66.4778L1024 39V657H636.512C628.278 617.532 587.301 538.296 489.266 537.097C391.232 535.898 357.036 616.533 352.192 657L2 645.01Z" fill="black"/>
</mask>
<g mask="url(#mask0_1013_283)">
<path d="M596.541 500.992V267.78H830V500.992H596.541ZM556.541 131.842C503.526 131.842 460.541 174.799 460.541 227.797V540.976C460.541 593.974 503.526 636.931 556.541 636.931H870C923.016 636.931 966 593.974 966 540.976V227.797C966 174.799 923.016 131.842 870 131.842H556.541Z" fill="#64A1BB" stroke="#477F97" stroke-width="16"/>
<path d="M465.374 500.992H209.804L337.589 279.829L465.374 500.992ZM417.258 145.9C381.844 84.6085 293.334 84.6087 257.92 145.9L53.9121 498.985C18.4875 560.296 62.761 636.93 133.581 636.93H541.597C612.417 636.93 656.691 560.296 621.266 498.985L417.258 145.9Z" fill="#D16C65" stroke="#B44C45" stroke-width="16"/>
</g>
<path d="M643.233 702.938C643.233 781.187 580.918 842.067 507.182 842.067C433.447 842.067 371.132 781.187 371.132 702.938C371.132 624.688 433.447 563.808 507.182 563.808C580.918 563.808 643.233 624.688 643.233 702.938ZM507.182 978.006C657.517 978.006 779.233 854.768 779.233 702.938C779.233 551.108 657.517 427.87 507.182 427.87C356.848 427.87 235.132 551.108 235.132 702.938C235.132 854.768 356.848 978.006 507.182 978.006Z" fill="#EBB700" stroke="#C4910D" stroke-width="16"/>
</svg>
